<svg width="76" height="82" viewBox="0 0 76 82" fill="none" xmlns="http://www.w3.org/2000/svg">
<path d="M0.6 72.12C0.6 71.08 0.88 70.36 1.44 69.96C2 69.56 2.72 69.28 3.6 69.12C4.32 69.12 4.88 69.36 5.28 69.84C5.76 70.32 6.32 71.08 6.96 72.12C7.6 73.24 8.12 74.04 8.52 74.52C9 74.92 9.8 75.12 10.92 75.12C13.48 75.12 15.56 74.32 17.16 72.72C18.84 71.12 19.68 69.24 19.68 67.08C19.68 64.76 19.2 62.32 18.24 59.76C17.28 57.2 15.8 54 13.8 50.16C9.8 42.96 7.8 37.24 7.8 33C7.8 28.76 8.84 25.36 10.92 22.8C13.08 20.24 16 18.96 19.68 18.96C22.24 18.96 24.68 19.68 27 21.12C29.32 22.56 30.48 24.36 30.48 26.52C30.48 28.84 29.52 30 27.6 30C27.04 30 26.56 29.84 26.16 29.52C25.84 29.2 25.52 28.84 25.2 28.44C24.88 27.96 24.64 27.64 24.48 27.48C23.04 25.8 21.44 24.96 19.68 24.96C15.76 24.96 13.8 27.24 13.8 31.8C13.8 34.28 14.28 36.8 15.24 39.36C16.2 41.92 17.64 45.16 19.56 49.08C21.4 52.92 22.8 56.12 23.76 58.68C24.72 61.24 25.2 63.68 25.2 66C25.2 70.08 23.96 73.52 21.48 76.32C19 79.12 15.52 80.8 11.04 81.36C8.24 81.36 5.8 80.4 3.72 78.48C1.64 76.48 0.6 74.36 0.6 72.12ZM49.3913 81.36C47.3913 81.36 46.2713 80.52 46.0313 78.84C44.6713 69.64 43.5513 60.56 42.6713 51.6C41.3913 40.8 40.1513 30.84 38.9513 21.72C39.1913 21 39.6313 20.36 40.2713 19.8C40.9913 19.16 41.6313 18.84 42.1913 18.84C43.3113 18.84 44.0713 19.52 44.4713 20.88C45.3513 29.2 46.3113 37.4 47.3513 45.48C48.3113 52.28 49.4313 61.32 50.7113 72.6C57.1913 62.44 62.0313 53.4 65.2313 45.48C68.4313 37.56 70.0313 29.64 70.0313 21.72C70.0313 13.32 67.5513 8.16 62.5913 6.24C61.1513 5.67999 59.8713 5.35999 58.7513 5.27999C57.5513 5.12 56.7113 4.92 56.2313 4.68C55.8313 4.35999 55.6313 3.88 55.6313 3.24C55.6313 1.56 56.7513 0.559996 58.9913 0.239995C70.1113 1.03999 75.6713 7.87999 75.6713 20.76C75.6713 33.64 71.2713 48 62.4713 63.84C59.5113 69.2 56.2313 74.24 52.6313 78.96C51.4313 80.56 50.3513 81.36 49.3913 81.36Z" fill="black"/>
</svg>
